<svg xmlns="http://www.w3.org/2000/svg" version="1.1" xmlns:xlink="http://www.w3.org/1999/xlink" xmlns:svgjs="http://svgjs.dev/svgjs" width="2000" height="2361" viewBox="0 0 2000 2361"><g transform="matrix(1,0,0,1,-1.5440972600354144,0.7356210438319977)"><svg viewBox="0 0 277 327" data-background-color="#ffffff" preserveAspectRatio="xMidYMid meet" height="2361" width="2000" xmlns="http://www.w3.org/2000/svg" xmlns:xlink="http://www.w3.org/1999/xlink"><g id="tight-bounds" transform="matrix(1,0,0,1,0.21385747051490966,-0.1005735074042775)"><svg viewBox="0 0 276.5722850589702 327.2" height="327.2" width="276.5722850589702"><g><svg viewBox="0 0 276.5722850589702 327.2" height="327.2" width="276.5722850589702"><g><svg viewBox="0 0 276.5722850589702 327.2" height="327.2" width="276.5722850589702"><g><svg viewBox="0 0 276.5722850589702 327.2" height="327.2" width="276.5722850589702"><g><svg viewBox="0 0 276.5722850589702 327.2" height="327.2" width="276.5722850589702"><g transform="matrix(1,0,0,1,0,0)"><svg width="276.5722850589702" viewBox="27.716800689697266 -6.405656337738037 25.58837127685547 30.27244758605957" height="327.2" data-palette-color="#0063db"><path d="M27.771 2.771v0c0.267-1.447 1.328-2.904 3.183-4.37v0c0.82-0.616 1.699-1.172 2.636-1.669 0.931-0.493 1.94-0.923 3.029-1.289v0c0.217-0.885 0.606-1.476 1.165-1.773v0c0.147-0.078 0.266-0.096 0.357-0.053 0.09 0.043 0.125 0.122 0.104 0.239-0.018 0.123-0.117 0.277-0.298 0.463-0.18 0.186-0.348 0.482-0.502 0.889v0c0.816-0.169 1.396-0.257 1.738-0.265 0.343-0.008 0.637 0.055 0.882 0.189 0.239 0.137 0.38 0.247 0.424 0.33v0c0.1 0.188-0.183 0.338-0.849 0.45-0.671 0.114-1.419 0.326-2.244 0.635v0c0.101 1.086 0.355 2.52 0.765 4.303 0.412 1.774 0.66 2.838 0.743 3.194v0c0.975-0.864 1.655-1.398 2.038-1.601 0.383-0.203 0.63-0.3 0.74-0.29 0.116 0.006 0.199 0.049 0.249 0.128 0.056 0.076 0.077 0.152 0.063 0.226-0.013 0.075-0.078 0.117-0.193 0.126-0.116 0.009-0.298 0.079-0.546 0.21-0.247 0.131-0.669 0.468-1.264 1.01-0.59 0.539-0.854 1.015-0.793 1.428v0c0.877 6.266 0.386 11.209-1.476 14.828v0c-0.811 1.63-1.755 2.73-2.833 3.302v0c-0.395 0.209-0.801 0.346-1.22 0.41v0c-1.248 0.209-2.193-0.294-2.837-1.507-0.646-1.219-0.721-2.889-0.222-5.009v0c0.998-4.28 3.304-8.256 6.917-11.931v0c-0.035-0.223-0.163-0.94-0.383-2.151v0c-0.525-2.755-0.764-4.835-0.717-6.241v0c-0.247 0.131-0.621 0.329-1.122 0.594-0.495 0.262-1.172 0.686-2.032 1.27v0c-2.206 1.517-3.565 2.996-4.076 4.437v0c-0.253 0.775-0.209 1.484 0.131 2.126v0c0.166 0.312 0.402 0.545 0.71 0.699 0.311 0.16 0.575 0.246 0.793 0.258v0c0.371 0.045 0.847 0.06 1.429 0.047v0c0.347 0.057 0.458 0.146 0.332 0.265v0c-0.059 0.031-0.136 0.057-0.23 0.077v0c-0.557 0.159-1.246 0.14-2.068-0.058-0.825-0.204-1.419-0.621-1.784-1.25v0c-0.187-0.195-0.317-0.364-0.392-0.506v0c-0.365-0.689-0.481-1.413-0.347-2.17zM32.322 21.218v0c0.122 0.23 0.264 0.448 0.428 0.656v0c0.625 0.68 1.352 0.8 2.182 0.36v0c1.225-0.65 2.079-2.155 2.563-4.517v0c0.704-3.482 0.757-7.366 0.16-11.652v0c-3.006 3.111-4.863 6.555-5.569 10.332v0c-0.427 2.113-0.348 3.72 0.236 4.821zM52.696 6.272v0c-0.615 1.022-1.543 1.161-2.782 0.415-1.234-0.743-2.226-2.546-2.977-5.41v0c-0.055-0.22-0.106-0.387-0.153-0.501v0l-0.171-0.395c-0.214-0.51-0.375-0.786-0.483-0.827v0l-0.331-0.071c-0.288-0.064-0.664 0.16-1.129 0.674-0.463 0.523-0.802 0.964-1.019 1.325v0c1.469 3.351 2.298 5.277 2.486 5.779 0.191 0.496 0.228 0.779 0.108 0.847-0.121 0.059-0.222 0.065-0.302 0.017-0.08-0.048-0.164-0.18-0.251-0.396v0c-0.678-1.886-1.533-3.677-2.567-5.374v0c-0.188 0.222-0.384 0.353-0.587 0.394-0.204 0.041-0.431-0.085-0.684-0.376-0.25-0.283-0.483-0.839-0.699-1.67-0.216-0.83-0.297-1.49-0.244-1.98 0.048-0.493 0.082-0.802 0.104-0.929 0.018-0.121 0.064-0.242 0.136-0.362v0c0.148-0.246 0.462 0.053 0.944 0.895v0l1.161 2.298c0.606-0.865 1.103-1.62 1.492-2.265v0l0.605-1.083c0.206-0.343 0.403-0.567 0.591-0.671 0.188-0.105 0.369-0.05 0.543 0.163v0c0.297 0.373 0.598 1.037 0.903 1.991v0c0.68 2.051 1.634 3.859 2.864 5.423v0c0.3 0.367 0.59 0.635 0.87 0.804v0c0.583 0.351 1.001 0.315 1.255-0.108v0c0.083-0.137 0.134-0.468 0.154-0.993 0.014-0.528-0.117-1.506-0.394-2.933-0.283-1.431-0.657-2.671-1.121-3.721v0c-0.049-0.138-0.018-0.248 0.093-0.329 0.12-0.083 0.206-0.109 0.257-0.079 0.051 0.031 0.094 0.084 0.127 0.158v0c0.366 0.633 0.735 1.598 1.105 2.895 0.374 1.291 0.596 2.468 0.666 3.528v0c0.129 1.066-0.061 2.021-0.57 2.867z" opacity="1" transform="matrix(1,0,0,1,0,0)" fill="#ffffff" class="undefined-text-0" data-fill-palette-color="primary" id="text-0"></path></svg></g></svg></g></svg></g></svg></g><g></g></svg></g><defs></defs></svg><rect width="276.5722850589702" height="327.2" fill="none" stroke="none" visibility="hidden"></rect></g></svg></g></svg>